<svg width="109" height="93" viewBox="0 0 109 93" fill="none" xmlns="http://www.w3.org/2000/svg">
<path d="M62.6062 53.1271C62.5332 53.5555 62.5176 53.9946 62.5541 54.4336C62.6583 55.7031 62.9448 55.9569 66.253 56.3272L66.9459 56.4065C68.4098 56.5811 69.8112 56.1315 70.8948 55.1529C71.9628 54.185 72.5775 52.7991 72.5775 51.3445C72.5775 51.17 72.5671 51.0007 72.5515 50.8262L62.6062 53.1324V53.1271Z" fill="#F9F9F9"/>
<path d="M59.1939 66.472C57.3913 65.5887 55.7242 65.1021 54.4895 65.1021C53.2548 65.1021 51.5877 65.5887 49.8008 66.4667C49.7852 66.4773 49.7383 66.4985 49.7227 66.5619C49.707 66.6095 49.7175 66.6571 49.7435 66.6995L54.177 73.5546C54.2707 73.6974 54.401 73.7292 54.4895 73.7292C54.5781 73.7292 54.7136 73.6974 54.8073 73.5546L59.2512 66.6889C59.2773 66.6466 59.2825 66.6043 59.272 66.5619C59.2564 66.5038 59.2147 66.4826 59.1991 66.4773L59.1939 66.472Z" fill="#F9F9F9"/>
<path d="M36.4688 50.8687C36.4427 51.1754 36.4427 51.4822 36.4688 51.7943C36.6667 54.1534 38.5578 56.137 40.8657 56.4067C44.0437 56.7823 45.3565 56.2745 45.8983 55.7826C46.0442 55.6503 46.4922 55.243 46.4922 53.9894C46.4922 53.7197 46.4714 53.4499 46.4297 53.1801L36.4688 50.8739V50.8687Z" fill="#F9F9F9"/>
<path d="M82.5705 46.6842C82.5497 46.3351 82.5184 45.9913 82.4819 45.6475C82.4663 45.4888 82.4507 45.3301 82.4299 45.1714C82.383 44.7853 82.3309 44.4045 82.2683 44.0236C82.2527 43.9231 82.2423 43.8279 82.2267 43.7274C82.2267 43.6957 82.2163 43.6692 82.211 43.6375C82.1589 43.6375 82.1121 43.6269 82.06 43.6269C81.8828 43.6163 81.7005 43.6005 81.5234 43.5846C81.3046 43.5634 81.091 43.5476 80.8722 43.5211C80.695 43.5 80.5127 43.4682 80.3356 43.4418C80.122 43.41 79.9136 43.3783 79.7052 43.336C79.528 43.3043 79.3509 43.2619 79.1738 43.2249C78.9654 43.1773 78.7622 43.1297 78.559 43.0821C78.3819 43.0345 78.21 42.9869 78.0329 42.934C77.8297 42.8758 77.6317 42.8176 77.4338 42.7489C77.2618 42.6907 77.0899 42.6325 76.918 42.569C76.72 42.5003 76.5273 42.4262 76.3293 42.3469C76.1626 42.2781 75.9959 42.2093 75.8292 42.1406C75.6364 42.0559 75.4489 41.9713 75.2561 41.8814C75.0946 41.8021 74.9279 41.728 74.7664 41.6434C74.5788 41.5482 74.3965 41.4477 74.2142 41.3472C74.0579 41.2625 73.9016 41.1726 73.7453 41.0827C73.5629 40.9769 73.3858 40.8658 73.2087 40.7495C73.0576 40.6542 72.9065 40.559 72.7607 40.4585C72.5835 40.3422 72.4116 40.2152 72.2397 40.0883C72.0938 39.9825 71.9532 39.882 71.8125 39.7709C71.6406 39.6387 71.4739 39.5011 71.3072 39.3636C71.1717 39.2525 71.0362 39.1415 70.906 39.0304C70.7393 38.8876 70.5778 38.7342 70.4163 38.5808C70.2913 38.4644 70.1662 38.348 70.0412 38.2317C69.8797 38.073 69.7234 37.9037 69.5671 37.7398C69.4525 37.6181 69.3379 37.5017 69.2285 37.3801C69.067 37.2002 68.9159 37.0151 68.7596 36.83C68.6606 36.7136 68.5616 36.5972 68.4627 36.4756C68.2959 36.264 68.1397 36.0471 67.9782 35.825C67.9052 35.7245 67.8271 35.624 67.7541 35.5182C67.5249 35.1902 67.3113 34.857 67.1029 34.5132C63.3519 36.6448 59.0383 37.7609 54.5059 37.7609C49.9734 37.7609 45.6598 36.6448 41.9088 34.5132C41.7005 34.857 41.4869 35.1902 41.2576 35.5182C41.1795 35.6345 41.0909 35.7403 41.0128 35.8514C40.8617 36.0577 40.7106 36.2693 40.5543 36.4703C40.4501 36.6025 40.3407 36.7242 40.2365 36.8511C40.0907 37.0257 39.9448 37.2055 39.7937 37.3748C39.6791 37.507 39.5541 37.6287 39.4342 37.7556C39.2832 37.9143 39.1373 38.073 38.981 38.2264C38.8507 38.3533 38.7205 38.475 38.5851 38.5966C38.4288 38.7395 38.2777 38.8823 38.1162 39.0251C37.9755 39.1467 37.8349 39.2578 37.6942 39.3742C37.5327 39.5064 37.3764 39.6387 37.2097 39.7656C37.0638 39.8767 36.9127 39.9878 36.7617 40.0936C36.595 40.2152 36.4282 40.3316 36.2563 40.448C36.1052 40.5537 35.949 40.649 35.7927 40.7495C35.6207 40.8605 35.4436 40.9663 35.2717 41.0721C35.1102 41.1673 34.9487 41.2572 34.7872 41.3472C34.6101 41.4477 34.4277 41.5429 34.2454 41.6328C34.0787 41.7174 33.912 41.7968 33.7453 41.8761C33.5577 41.966 33.3754 42.0454 33.1878 42.13C33.0159 42.2041 32.8492 42.2728 32.6773 42.3416C32.4845 42.4156 32.2917 42.4897 32.099 42.5584C31.9271 42.6219 31.7551 42.6801 31.578 42.7383C31.38 42.8018 31.1821 42.8652 30.9789 42.9181C30.8018 42.971 30.6299 43.0186 30.4527 43.0662C30.2495 43.1191 30.0464 43.1667 29.838 43.2091C29.6608 43.2461 29.4837 43.2884 29.3066 43.3201C29.0982 43.3624 28.8846 43.3942 28.671 43.4259C28.4939 43.4524 28.3167 43.4841 28.1396 43.5053C27.9208 43.5317 27.7072 43.5529 27.4884 43.5687C27.3113 43.5846 27.1341 43.6005 26.957 43.611C26.9101 43.611 26.8632 43.6216 26.8164 43.6216C26.8164 43.6481 26.8059 43.6798 26.8007 43.7063C26.7851 43.8068 26.7695 43.9125 26.7538 44.013C26.6913 44.3939 26.6392 44.7747 26.5975 45.1556C26.5767 45.3143 26.5611 45.4729 26.5455 45.6316C26.509 45.9754 26.4829 46.3245 26.4569 46.6684C26.4465 46.8165 26.436 46.9646 26.4308 47.1127C26.4048 47.5993 26.3892 48.0859 26.3892 48.5673V63.9279C26.3892 79.6693 39.0018 92.4803 54.5111 92.4803C70.0204 92.4803 82.633 79.6693 82.633 63.9279V48.5673C82.633 48.0806 82.6174 47.594 82.5914 47.1127C82.5861 46.9646 82.5705 46.8165 82.5653 46.6684L82.5705 46.6842ZM40.4449 60.0824C36.3814 59.6064 33.1826 56.2476 32.8336 52.1059C32.7398 50.9898 32.8492 49.8843 33.1618 48.8159C33.4952 47.6998 34.5215 46.9275 35.6572 46.9275H35.8604L47.3217 49.5828C48.5095 49.6886 49.5202 50.5297 49.8328 51.6986C50.0308 52.455 50.1297 53.222 50.1297 53.9837C50.1297 55.9196 49.5202 57.4483 48.3116 58.5432C47.0612 59.6751 45.2483 60.2305 42.7997 60.2305C42.0703 60.2305 41.2785 60.1829 40.4345 60.0824H40.4449ZM62.2996 68.7148L57.8557 75.5858C57.465 76.1888 56.9336 76.6596 56.3189 76.9769V81.9543C56.3189 81.9808 56.3136 82.0125 56.3084 82.039L60.5908 82.4621C61.5911 82.5626 62.3256 83.4671 62.2267 84.4827C62.1329 85.4401 61.341 86.1542 60.4137 86.1542C60.3564 86.1542 60.2939 86.1542 60.2365 86.1436L54.4955 85.5723L48.7544 86.1436C48.6919 86.1489 48.6346 86.1542 48.5773 86.1542C47.6499 86.1542 46.8581 85.4401 46.7643 84.4827C46.6653 83.4671 47.3999 82.5573 48.4001 82.4621L52.6825 82.039C52.6825 82.0125 52.6721 81.9861 52.6721 81.9543V76.9769C52.0573 76.6596 51.5207 76.1888 51.13 75.5805L46.6966 68.7254C46.0922 67.7944 45.9151 66.6413 46.2068 65.5676C46.4986 64.4991 47.2279 63.6105 48.2126 63.1291C49.8224 62.3357 52.2188 61.3942 54.4903 61.3942C56.7617 61.3942 59.1686 62.341 60.7836 63.1344C61.7578 63.6105 62.4923 64.4991 62.7841 65.5623C63.0758 66.6308 62.9039 67.7839 62.3048 68.7148H62.2996ZM73.3233 57.9137C71.7291 59.3578 69.6661 60.1406 67.5405 60.1406C67.2071 60.1406 66.8685 60.1194 66.5351 60.0824L65.863 60.0084C62.9404 59.6804 59.304 59.2784 58.9289 54.7506C58.8351 53.6346 58.9445 52.5291 59.2571 51.4606C59.5645 50.4344 60.4554 49.6992 61.4869 49.5881L72.9638 46.9275H73.167C74.459 46.9275 75.5999 47.8003 75.9334 49.0486C76.1313 49.805 76.2303 50.572 76.2303 51.3389C76.2303 53.8461 75.1727 56.2423 73.3285 57.9137H73.3233Z" fill="#F9F9F9"/>
<path d="M21.8822 43.2299C21.8509 43.2246 21.8197 43.2193 21.7884 43.2087C21.3977 43.1188 21.0174 43.0183 20.6371 42.9072C20.5433 42.8808 20.4443 42.849 20.3505 42.8226C19.9963 42.7115 19.642 42.5951 19.2982 42.4629C19.2721 42.4523 19.2409 42.4417 19.2148 42.4311C18.8449 42.2883 18.4855 42.1349 18.126 41.971C18.0322 41.9286 17.9436 41.8863 17.8499 41.844C17.5164 41.6853 17.183 41.5161 16.86 41.3362C16.834 41.3204 16.8079 41.3098 16.7819 41.2939C16.438 41.1035 16.1046 40.8919 15.7712 40.6803C15.6878 40.6274 15.5993 40.5693 15.5159 40.5111C15.2033 40.2995 14.896 40.0826 14.5938 39.8499C14.573 39.834 14.5573 39.8234 14.5365 39.8076C14.2239 39.5643 13.9166 39.3051 13.6144 39.0459C13.5779 39.0142 13.5362 38.9824 13.4998 38.9507C9.97802 44.1132 5.03402 51.2487 3.64303 52.661C2.08013 54.2425 0.845428 55.6125 0.584944 55.9087C-0.0871068 56.8396 -0.186091 58.0139 0.319249 59.0506C0.835009 60.1085 1.84048 60.7432 3.00224 60.7432H15.99C19.7097 60.7432 22.7366 57.6701 22.7366 53.8934V48.5828C22.7366 48.0433 22.7522 47.5037 22.7834 46.9642C22.7887 46.8161 22.7991 46.668 22.8095 46.5199C22.8355 46.0809 22.872 45.6418 22.9189 45.2028C22.9293 45.0917 22.9397 44.986 22.9502 44.8749C23.0023 44.4041 23.0648 43.9334 23.1377 43.4626C23.0856 43.4573 23.0335 43.4414 22.9814 43.4309C22.6115 43.3727 22.2416 43.3039 21.877 43.2246L21.8822 43.2299Z" fill="#F9F9F9"/>
<path d="M105.378 52.6618C103.987 51.2496 99.0376 44.1088 95.5107 38.9463C95.4742 38.978 95.4325 39.0045 95.396 39.0415C95.0939 39.306 94.7865 39.5652 94.4687 39.8085C94.4531 39.8191 94.4375 39.8296 94.4218 39.8402C94.1145 40.0729 93.8019 40.2951 93.4841 40.5067C93.4007 40.5596 93.3226 40.6178 93.2392 40.6707C92.9058 40.8875 92.5672 41.0938 92.2233 41.2895C92.2025 41.3001 92.1765 41.316 92.1556 41.3265C91.8274 41.5064 91.494 41.6756 91.1554 41.8396C91.0668 41.8819 90.9782 41.9243 90.8897 41.9666C90.5302 42.1305 90.1707 42.2892 89.8008 42.432C89.7696 42.4426 89.7383 42.4532 89.7018 42.4691C89.358 42.6013 89.0142 42.7177 88.6599 42.8235C88.5661 42.8552 88.4724 42.8816 88.3734 42.9134C87.9931 43.0245 87.6128 43.125 87.2272 43.2149C87.1856 43.2255 87.1439 43.2308 87.1022 43.2413C86.7479 43.3207 86.3885 43.3841 86.029 43.4423C85.9717 43.4529 85.9196 43.4635 85.8623 43.4741C85.9352 43.9395 85.9978 44.4103 86.0499 44.8811C86.0603 44.9974 86.0707 45.1085 86.0811 45.2249C86.128 45.6586 86.1593 46.0923 86.1905 46.5314C86.2009 46.6795 86.2114 46.8329 86.2166 46.981C86.2426 47.5205 86.2635 48.06 86.2635 48.5995V53.9102C86.2635 57.6868 89.2851 60.76 93.0048 60.76H105.998C107.165 60.76 108.165 60.1253 108.681 59.0674C109.186 58.0254 109.087 56.8564 108.415 55.9254C108.149 55.6292 106.915 54.2593 105.357 52.6777L105.378 52.6618Z" fill="#F9F9F9"/>
<path d="M94.4214 34.8416C96.9065 32.0277 98.2766 28.3832 98.2766 24.596C98.2766 16.1223 91.4884 9.2301 83.1425 9.2301C80.4074 9.2301 77.7296 9.97591 75.3956 11.3882L73.6816 12.4249L72.8168 10.6001C69.764 4.1628 62.5746 0 54.51 0C46.4454 0 39.256 4.1628 36.1979 10.6054L35.3331 12.4302L33.6191 11.3935C31.2852 9.9812 28.6022 9.2301 25.8671 9.2301C17.5211 9.2301 10.7329 16.1223 10.7329 24.596C10.7329 28.3832 12.1031 32.0277 14.5985 34.8469C16.8856 37.4441 19.9176 39.1473 23.257 39.7344C23.7363 39.819 24.2156 39.8772 24.7053 39.9195C24.9033 39.9301 25.1273 39.946 25.3513 39.9513H25.3669L25.7577 39.9618C25.7941 39.9618 25.8306 39.9618 25.8671 39.9618C31.7071 39.9618 37.0835 36.4972 39.5686 31.1337L40.4751 29.1819L42.2411 30.3879C45.7577 32.7946 50.0036 34.0694 54.5048 34.0694C59.0059 34.0694 63.2518 32.7946 66.7684 30.3879L68.5345 29.1819L69.441 31.1337C71.926 36.4972 77.3024 39.9618 83.1373 39.9618C83.2988 39.9618 83.4655 39.9618 83.627 39.9513H83.6426C83.8874 39.946 84.1167 39.9301 84.3355 39.9142C88.2115 39.6074 91.801 37.8037 94.4162 34.8416H94.4214Z" fill="#F9F9F9"/>
</svg>
