<svg width="22" height="17" viewBox="0 0 22 17" fill="none" xmlns="http://www.w3.org/2000/svg">
<path d="M2.75 2.0625C2.32031 2.09115 2.09115 2.32031 2.0625 2.75V3.69531L9.49609 9.79688C9.95443 10.1406 10.4557 10.3125 11 10.3125C11.5729 10.3125 12.0885 10.1406 12.5469 9.79688L19.9375 3.69531V2.75C19.9089 2.32031 19.6797 2.09115 19.25 2.0625H2.75ZM2.0625 6.35938V13.75C2.09115 14.1797 2.32031 14.4089 2.75 14.4375H19.25C19.6797 14.4089 19.9089 14.1797 19.9375 13.75V6.35938L13.8359 11.3867C12.9766 12.0456 12.0312 12.375 11 12.375C9.96875 12.375 9.02344 12.0456 8.16406 11.3867L2.0625 6.35938ZM0 2.75C0.0286458 1.97656 0.300781 1.33203 0.816406 0.816406C1.33203 0.300781 1.97656 0.0286458 2.75 0H19.25C20.0234 0.0286458 20.668 0.300781 21.1836 0.816406C21.6992 1.33203 21.9714 1.97656 22 2.75V13.75C21.9714 14.5234 21.6992 15.168 21.1836 15.6836C20.668 16.1992 20.0234 16.4714 19.25 16.5H2.75C1.97656 16.4714 1.33203 16.1992 0.816406 15.6836C0.300781 15.168 0.0286458 14.5234 0 13.75V2.75Z" fill="#7E0101"/>
</svg>
