<svg width="464" height="93" viewBox="0 0 464 93" fill="none" xmlns="http://www.w3.org/2000/svg">
<path d="M442.019 85.8416C435.885 86.2344 427.641 86.1816 421.407 85.9703C419.479 85.9047 420.441 85.2888 419.076 85.219C416.451 85.0822 413.975 85.4561 411.367 85.2803C410.504 85.2192 411.543 84.2572 410.635 84.2145C405.646 83.9877 400.953 84.4007 395.907 84.3996C392.101 84.4005 388.445 84.4122 384.628 84.444C363.613 84.608 342.797 85.1797 321.412 85.7247C313.115 85.9371 302.995 85.5275 294.446 86.2577C293.448 86.3438 294.079 87.1284 293.891 87.2032C290.95 88.3521 291.873 86.6748 289.915 86.5403C282.144 86.0114 273.538 86.3028 266.11 86.9318C262.948 87.2019 266.188 88.6758 262.968 87.9081C262.745 87.8564 263.509 86.9623 262.64 86.9073C260.666 86.7845 256.919 87.0977 255.408 87.0936C252.444 87.0835 251.957 87.1129 249.193 87.2203C245.366 87.3617 240.817 87.126 236.776 87.492C235.897 87.5734 237.099 88.4059 235.703 88.6152C234.292 88.8249 230.671 88.9028 229.385 88.7487C228.129 88.5933 228.632 87.8778 228.404 87.7283C226.557 86.463 222.358 88.4996 221.82 88.5681C212.427 89.7059 204.084 89.1361 195.34 89.3987C194.851 89.4136 194.366 89.4306 193.884 89.4502C186.75 89.7351 179.242 90.4147 172.286 90.4694C170.227 90.4742 168.214 90.4524 166.038 90.2644C165.566 90.2193 164.855 90.1467 164.195 90.0219C163.977 89.9818 163.758 89.9359 163.527 89.8778C163.411 89.8487 163.292 89.8165 163.169 89.7795C163.106 89.7607 163.047 89.7423 162.976 89.7192C162.873 89.6858 162.765 89.6486 162.652 89.6058C162.174 89.4021 161.735 89.2857 160.828 88.5013C160.203 87.9486 159.393 86.826 159.247 85.412C159.124 83.8724 159.498 83.1667 159.824 82.5062C160.168 81.8842 160.52 81.5082 160.817 81.2209C161.065 80.9887 161.173 80.908 161.336 80.7839C161.636 80.5594 161.9 80.3985 162.153 80.2562C162.544 80.0413 162.833 79.9103 163.175 79.762C163.529 79.6104 163.716 79.5422 163.999 79.4355C164.254 79.3409 164.589 79.2215 164.79 79.1554C168.743 77.8729 172.149 77.0748 176.001 75.951C176.824 75.7163 175.599 74.9772 176.577 74.6963C185.022 72.2846 193.345 70.1594 201.895 68.2765C203.78 67.8667 205.84 67.4276 207.759 67.0465C208.802 66.8393 207.718 68.075 208.776 67.9199C215.3 66.9383 225.776 65.9577 228.509 61.1028C232.822 60.0904 238.112 58.8146 242.116 58.551C244.73 58.3714 242.577 59.9875 245.525 58.744C246.179 58.4679 245.067 57.8703 246.065 57.5193C250.29 56.0363 255.103 55.0141 259.257 53.4132C260.1 53.086 259.658 52.3994 259.867 52.1969C261.64 50.5347 265.589 51.4017 266.371 51.3291C272.382 50.7403 276.441 49.2152 281.782 47.7805C283.024 47.4474 281.281 46.8392 282.467 46.4824C288.597 44.6508 295.03 42.9858 301.197 41.7829C302.57 41.5175 301.568 42.715 302.236 42.6322C305.18 42.2567 305.367 40.4609 308.18 40.0701C308.773 39.9857 308.651 40.8097 308.777 40.862C310.757 41.6853 311.694 39.4981 312.103 39.3438C317.278 37.3501 321.189 38.3009 326.271 36.6329C326.877 36.4318 325.236 35.8778 326.956 35.3695C338.396 31.9817 350.688 28.9256 362.302 26.6037C364.119 26.2383 363.032 27.2812 363.168 27.3373C365.36 28.1944 366.042 26.0743 366.597 25.8524C371.055 24.1317 375.744 24.5044 378.234 21.5357C383.528 20.3424 388.743 19.0271 393.914 17.6916C408.136 14.029 422.135 10.1432 436.692 8.2997C436.94 8.26691 436.701 9.26669 437.21 9.19395C443.297 8.35721 441.78 7.23125 445.426 4.6774C446.305 4.04196 449.837 5.51184 450.106 5.62579C451.212 6.00346 450.422 7.54237 450.776 7.58995C453.64 7.97299 452.377 3.53723 456.278 3.0165C456.396 3.00969 455.998 3.89874 456.323 3.9429C457.361 4.08023 458.359 3.65072 459.423 3.89037C459.858 3.99343 460.266 4.16004 460.612 4.35453C461.468 4.82996 461.913 5.19203 463.179 5.94142C463.286 6.0182 463.39 6.09125 463.543 6.26689C463.67 6.40582 463.852 6.75371 463.835 7.05294C463.825 7.37505 463.722 7.5423 463.63 7.68557C463.555 7.79303 463.458 7.89336 463.394 7.94766C463.107 8.19135 462.875 8.31456 462.646 8.47219C462.173 8.78607 461.719 9.14915 461.199 9.69034C460.879 10.0126 462.56 12.1287 459.345 13.3804C458.874 13.5603 457.813 13.9978 456.588 14.4868C454.541 15.3134 451.953 16.2717 450.925 16.5287C449.306 16.936 450.101 15.7682 449.978 15.7746C445.393 16.2211 446.853 15.2198 444.246 14.3745C441.646 13.5102 443.421 16.9865 442.661 17.675C441.935 18.3554 438.516 18.4226 437.687 18.3259C436.825 18.2439 437.65 17.4621 436.91 17.487C432.081 17.6248 435.452 19.8778 434.108 20.8803C430.923 23.2358 427.449 21.1597 424.157 21.6692C423.252 21.8095 424.122 22.2699 423.352 22.5173C420.312 23.4811 418.266 23.0387 414.887 24.6321C414.375 24.8839 411.839 27.2028 409.74 26.3604C409.436 26.2393 410.043 25.3812 408.666 25.512C406.654 25.6976 403.068 26.2842 400.948 26.956C399.434 27.4425 401.453 28.2324 399.411 28.2721C398.496 28.2898 400 27.2875 398.288 27.3772C396.581 27.4677 392.38 28.3219 390.797 28.6486C389.192 28.9818 390.24 29.6872 390.122 29.7711C389.358 30.2687 386.436 31.2596 386.138 31.3136C385.706 31.3984 385.272 31.4817 384.835 31.5637C371.617 34.0418 359.094 34.7804 346.211 37.3899C345.166 37.5998 346.018 38.4115 345.86 38.4531C342.312 39.4328 344.741 36.5054 342.104 36.0887C342.768 37.9113 341.251 37.8097 338.737 38.4267C337.524 38.7256 338.311 39.3464 338.211 39.439C336.566 40.8389 335.097 39.607 334.721 39.3671C333.351 38.4823 332.24 39.962 331.301 39.3731C330.378 38.7872 332.076 37.4345 329.664 37.8291C329.091 38.61 331.167 40.0878 329.372 40.663C322.57 42.8476 309.336 43.4423 303.704 44.1204C298.061 44.8059 296.302 45.1856 292.986 45.4152C287.042 45.8175 289.37 46.8197 285.798 47.938C282.213 49.0551 283.543 45.5804 282.918 44.962C282.303 44.3422 281.837 45.1346 281.137 44.8442C280.44 44.5535 281.768 43.8876 280.234 43.9563C278.704 44.0252 274.748 45.828 274.306 46.6264C273.383 48.3172 275.462 49.6754 271.387 49.6551C271.153 49.6528 271.784 48.7031 270.891 48.7374C263.793 49.0389 256.513 49.9609 249.437 50.2811C248.464 50.3238 249.204 49.2691 248.637 49.2832C242.724 49.4233 245.015 50.7488 242.036 52.9214C242.46 50.4759 240.509 49.2608 236.082 49.7932C233.419 50.1113 234.003 51.0834 232.369 52.0186C231.879 52.3003 229.908 51.822 229.624 52.3469C228.688 54.0639 230.677 55.6237 226.02 55.4643C225.816 55.4546 226.351 54.5126 225.652 54.5425C221.124 54.7302 220.793 56.4475 215.958 57.207C212.178 57.8016 205.302 57.5462 200.949 57.8462C200.755 55.1844 196.738 56.2287 195.266 58.2314C192.454 58.4507 189.416 58.8669 186.678 58.886C185.736 58.8932 186.272 58.0632 186.146 57.9919C185.679 57.7208 185.265 57.626 184.896 57.64C183.728 57.685 183.014 58.8025 182.558 58.9007C176.06 60.2218 170.544 59.3705 164.391 61.2429C164.172 61.3099 163.968 63.1889 162.168 61.9866C162.052 61.903 164.054 60.8836 161.094 61.0739C158.141 61.2639 152.478 60.7386 148.435 61.9178C147.469 62.2018 145.053 63.8998 142.947 62.8806C142.666 62.7418 142.919 62.1895 142.51 61.924C141.186 61.079 140.655 62.9974 139.049 61.5206C137.445 60.0433 134.319 59.0785 130.246 60.4609C130.114 60.502 129.251 62.0501 127.94 62.1155C125.831 62.2201 122.907 62.1028 120.705 62.2528C119.663 62.3244 120.389 63.2019 120.209 63.2303C113.241 64.1878 108.232 63.6588 100.709 63.7017C99.3067 63.7092 95.4618 65.1653 92.7203 64.3013C89.7503 63.3522 92.5474 58.6957 85.8874 60.077C83.2109 60.6271 79.9954 66.5135 75.0314 63.7248C65.5847 64.8181 56.8509 63.5541 47.3833 64.794C46.9627 64.8489 45.6566 66.4766 44.6367 66.4724C43.1418 66.4627 42.3444 65.7259 41.2567 65.6927C36.805 65.5321 32.7384 66.2112 28.4386 66.1235C27.421 66.1034 27.2703 65.7938 26.8335 65.5539C26.5541 65.4088 26.1645 65.2892 25.4335 65.2722C23.5407 65.2266 22.1774 66.2436 19.5841 65.724C17.5655 65.3246 15.6398 63.2124 13.043 62.886C12.8867 64.9303 11.0715 64.867 7.84078 65.1824C7.20564 65.2386 7.82133 66.0046 7.51758 66.0677C6.27686 66.3354 5.23885 65.6427 3.98813 65.8139C3.69403 65.8533 3.51723 66.5338 3.2182 66.5841C2.96474 66.637 2.62288 66.628 2.29415 66.5648C1.88472 66.4393 1.51358 66.4418 0.725285 65.6724C0.382223 65.3665 -0.144346 64.303 0.0367241 63.4449C0.181023 62.6191 0.525683 62.2367 0.742098 61.9805C1.20552 61.4883 1.53976 61.3313 1.84966 61.1756C3.05242 60.6458 3.98993 60.6616 4.56921 60.6285C4.74566 60.6248 4.88306 60.6249 4.96634 60.6251C7.29652 60.6345 7.77273 59.3974 9.39606 59.0873C11.0124 58.786 9.07579 60.2566 10.8628 59.6997C14.5553 58.5507 19.0285 56.4988 22.6531 55.0699C24.0967 54.4958 22.7639 54.0234 22.9623 53.9211C23.5833 53.6163 24.2226 53.3674 24.8631 53.1381C27.2134 52.297 29.4807 51.7635 30.2855 49.8929C34.0679 53.635 31.9409 48.7651 36.6152 48.0923C36.9829 48.0423 38.1929 50.0316 37.0001 50.8209C35.81 51.6092 33.5851 51.6642 31.9637 52.8288C31.5769 53.1022 29.8985 56.0248 29.6208 56.2724C27.5303 58.1013 25.9806 55.5023 25.6406 55.1079C25.6209 55.0851 25.6053 55.0698 25.5939 55.0632C23.287 53.7947 21.1905 57.1428 20.4916 57.6119C17.2462 59.7597 14.0914 60.6352 11.4235 62.4541C9.67909 63.6449 10.4687 65.7479 8.996 66.3904C8.55035 66.5862 8.1173 66.7512 7.70441 66.8885C7.187 67.0608 6.73144 67.1764 6.38755 67.2328C6.22079 67.2577 6.07555 67.2723 5.99588 67.2473C5.92436 67.2114 5.88677 67.1837 6.09059 66.9C6.17277 66.7679 6.37341 66.5349 6.63217 66.0285C6.776 65.7435 6.92882 65.3816 7.03344 64.8907C7.15102 64.3567 7.17616 63.6742 7.037 63.0328C6.90717 62.4067 6.62902 61.8355 6.34012 61.4349C6.09695 61.099 5.84853 60.8605 5.63607 60.6905C5.23212 60.3798 5.03605 60.3259 4.87755 60.2732C4.6214 60.2149 4.59111 60.2843 4.61622 60.3467C4.65219 60.4151 4.72592 60.4872 4.85249 60.5604C5.86447 61.1386 7.61939 61.2759 9.89127 60.1727C10.9953 59.6466 9.98642 57.1822 13.795 59.234C13.9997 59.3648 16.9045 61.1941 18.5937 60.1012C18.8087 59.964 18.8107 59.2522 19.0958 59.1959C20.97 58.8313 22.193 59.4069 24.2864 59.1417C25.0544 59.0385 25.9086 58.9143 26.8281 58.8137C28.1835 58.6546 29.7284 58.5549 31.136 58.6949C32.5902 58.8315 34.3595 60.1428 35.0699 60.4606C36.9795 61.3784 39.062 59.8185 40.2312 60.9347C41.4505 62.0556 39.1035 63.8194 42.3016 64.5072C42.3971 62.6562 42.623 60.7542 42.7785 58.8916C49.6251 58.8467 56.4605 59.2804 63.3407 58.988C64.1942 58.9497 63.289 57.983 64.2055 57.916C68.0893 57.6361 71.4585 58.2284 75.4941 57.792C78.5713 57.452 81.9382 56.2601 85.1889 55.8511C87.2462 57.88 92.042 56.9399 95.5654 56.9556C96.7866 56.9612 96.7348 57.5296 97.6161 57.6692C100.955 58.1797 99.316 56.3914 100.204 56.0504C103.971 54.5919 104.575 58.7992 109.119 58.4353C109.364 58.4176 112.195 55.9918 112.585 55.8271C115.111 54.7578 113.057 56.5859 114.688 56.6543C117.688 56.7766 119.741 57.188 123.18 56.3015C124.168 56.0409 126.508 54.4764 128.546 55.4269C128.812 55.5515 128.721 56.3052 128.931 56.3346C132.724 56.8026 132.695 54.4533 134.769 53.5096C136.839 52.5662 140.311 53.9298 141.003 54.3447C142.851 55.4149 139.699 54.9599 139.605 55.0849C138.583 56.5733 140.985 56.1523 142.84 56.1299C143.28 58.4012 145.871 58.063 144.771 56.0962C144.646 55.8818 143.218 56.2065 142.84 56.1299C144.298 53.758 147.105 53.2518 150.416 55.0988C151.966 55.9635 150.687 57.2255 155.101 56.4392C157.114 56.0809 156.198 54.57 157.957 53.9888C161.942 52.6651 167.372 53.6672 171.574 53.045C173.086 52.8206 171.525 52.0952 172.556 51.9118C175.29 51.4218 177.815 51.8345 180.547 51.2343C180.795 51.1787 180.093 50.3363 180.955 50.2406C182.029 50.1185 183.084 50.0156 184.129 49.9259C189.403 49.4734 194.38 49.3683 200.087 48.7675C203.394 48.4206 209.238 47.2705 212.667 46.9802C218.613 46.4762 226.052 46.9244 231.077 45.99C234.352 45.3847 233.518 44.5722 234.856 43.7857C237.435 42.2631 242.526 43.7862 243.218 44.0327C243.24 44.0414 240.428 44.6104 242.001 44.8818C243.003 45.7332 243.187 44.0409 243.218 44.0327C243.67 44.1933 249.37 43.6745 250.472 43.3559C251.071 43.183 250.619 42.3752 250.933 42.3012C258.413 40.5592 265.968 39.3306 273.697 38.6727C273.834 38.6713 273.761 39.6513 274.084 39.636C278.585 39.4469 281.28 37.8823 284.833 36.6748C288.411 35.4637 291.319 35.2812 293.739 36.598C296.476 35.9927 300.54 36.1344 302.888 36.234C305.228 36.3349 305.267 34.4373 305.465 34.3705C311.562 32.2639 315.299 32.7801 321.832 31.9383C324.914 31.5459 331 30.314 334.296 29.5778C336.878 28.9977 338.583 29.1664 340.937 28.4996C341.257 28.4097 340.794 27.6411 340.888 27.5933C343.436 26.1683 342.466 28.3891 343.085 28.6565C345.347 29.6256 346.659 30.125 350.064 28.9273C350.853 28.6517 352.649 25.3785 354.106 24.9581C355.968 24.4225 355.431 25.5794 357.356 24.9936C357.525 24.9436 357.362 24.314 358.601 24.131C364.282 23.2845 370.547 22.567 376.407 21.4333C377.203 21.2818 375.999 20.4562 377.141 20.2211C378.873 19.8645 380.738 19.4968 382.516 19.1678C386.392 18.4507 390.181 17.8482 393.863 17.4525C395.168 17.3183 394.504 18.1835 394.823 18.3381C396.82 19.2616 398.881 16.9271 399.275 16.8097C408.678 13.9603 416.433 14.0232 425.814 10.8431C426.365 10.6597 429.795 7.69429 432.015 8.87069C432.163 8.94978 434.386 10.174 435.602 8.56463C435.677 8.46356 434.349 7.90185 436.25 7.4467C438.158 6.9878 440.932 5.50395 443.746 5.60067C444.609 5.64032 447.116 6.64749 448.93 4.44503C449.016 4.3453 450.039 2.49265 451.337 1.58418C452.056 1.0872 452.829 0.883418 453.567 1.41009C453.88 1.66192 454.703 3.87156 456.765 1.64668C457.1 1.23428 456.162 1.11101 457.05 0.32396C457.206 0.167738 457.368 0.0233307 457.339 0.00057888C457.316 -0.00347328 457.255 0.00729275 456.965 0.208484C456.896 0.257116 456.786 0.339073 456.666 0.437624C456.55 0.533492 456.389 0.670369 456.17 0.888052C456.062 0.994985 455.945 1.11802 455.817 1.26321C455.67 1.42952 455.487 1.65242 455.3 1.91401C454.972 2.38236 454.35 3.28841 453.941 4.82103C453.433 6.4742 453.567 9.43099 454.77 11.4646C455.896 13.4565 457.159 14.2774 457.806 14.7105C458.527 15.1664 459.053 15.3745 459.378 15.5007C459.738 15.6362 459.994 15.7078 460.17 15.7548C460.901 15.9357 460.985 15.9127 461.069 15.9311C461.17 15.9442 460.922 15.938 460.654 15.9578C459.855 16.0107 458.921 16.2223 457.892 16.7971C457.499 17.0229 455.864 18.839 454.045 17.9471C453.756 17.8077 454.118 16.9567 453.223 17.0268C449.043 17.3524 444.612 18.8395 440.178 19.2921C438.546 19.4698 439.119 18.0541 437.418 18.1005C435.712 18.1475 432.421 18.5915 430.827 19.5635C429.291 20.5215 431.611 22.0155 429.092 22.7882C418.668 26.0057 407.903 27.6688 397.196 30.2313C396.816 30.3222 396.434 30.4148 396.05 30.5093C394.423 30.9096 395.961 31.244 393.546 31.8928C384.7 34.269 369.576 39.0087 361.496 39.616C354.991 40.1098 362.549 37.1145 357.678 37.915C355.369 38.2932 353.504 41.201 352.97 41.4209C347.817 43.5822 343.828 43.5983 339.073 45.2153C338.099 45.5474 339.318 46.1913 338.486 46.4641C335.645 47.4042 332.477 47.8303 329.74 48.6543C328.509 49.0273 328.926 49.6583 327.767 49.9162C325.001 50.5401 322.514 50.9045 319.667 50.9825C319.408 50.9893 320.806 49.682 318.781 50.1996C315.501 51.0404 311.261 51.5083 307.679 53.1973C306.616 53.7013 307.005 55.2971 304.306 54.8587C303.741 54.7677 303.863 52.6903 301.517 55.0972C301.123 55.4982 297.026 58.9994 294.335 58.1996C293.627 57.9889 291.644 56.8583 290.368 57.47C290.197 57.5588 291.159 58.2101 290.069 58.5973C286.231 59.945 282.094 60.9787 278.131 62.3486C277.074 62.716 278.919 63.1577 277.336 63.6769C273.004 65.1007 267.421 66.3866 263.032 67.2899C261.421 67.6194 262.316 66.591 262.179 66.5432C259.985 65.7555 259.332 67.8065 258.747 68.0755C255.09 69.7285 251.905 69.7187 248.452 70.8938C247.482 71.2206 248.408 71.8605 248.232 71.9882C246.399 73.2661 247.503 71.3617 246.177 71.5468C242.492 72.0517 238.515 73.2075 234.91 74.3026C233.588 74.7058 235.348 75.2618 234.16 75.6118C227.141 77.7 219.768 79.6017 212.721 80.9317C211.399 81.1787 212.013 80.2167 211.698 80.1197C209.583 79.4175 207.173 81.8005 206.627 82.1123C206.307 82.29 206.009 82.4401 205.728 82.5682C203.564 83.5293 202.406 83.3101 200.161 84.0251C194.061 85.9841 187.149 87.8539 180.471 89.6144C177.143 90.4975 173.709 91.3887 170.917 92.2321C170.246 92.4351 169.585 92.6527 169.225 92.7836C169.104 92.8138 168.907 92.9387 169.471 92.5983C169.644 92.4875 169.889 92.3275 170.243 92.038C170.439 91.831 171.44 91.2252 172.55 89.1525C173.076 88.0038 173.616 86.9702 173.564 84.3828C173.476 82.0332 172.325 79.8337 171.258 78.6598C170.011 77.3153 169.687 77.245 169.197 76.8999C168.747 76.6204 168.381 76.4435 168.081 76.3121C167.78 76.1816 167.543 76.0985 167.352 76.037C167.165 75.9781 167.114 75.9663 167.018 75.9409C166.849 75.8974 166.735 75.8756 166.659 75.8627C166.504 75.8376 166.523 75.8493 166.552 75.8568C166.587 75.866 166.67 75.8798 166.787 75.8944C166.88 75.9068 166.991 75.9196 167.121 75.9323C167.71 75.9859 168.282 76.0196 168.99 76.0476C177.844 76.2774 186.391 76.1723 194.799 76.0613C200.132 75.9735 205.51 75.8171 211.325 75.5014C212.278 75.4506 211.272 74.4686 212.096 74.4116C222.686 73.7237 233.129 73.683 243.71 72.9391C244.576 72.88 243.285 71.9641 244.674 71.8365C247.545 71.5672 251.154 71.4669 254.085 71.6524C255.514 71.741 253.646 72.6532 255.075 72.7258C258.379 72.8978 261.954 72.815 265.342 72.5153C266.791 72.3854 264.558 71.4876 266.445 71.3959C279.258 70.7526 291.847 70.0456 304.858 70.7791C305.751 70.8295 306.608 72.8108 308.487 72.3442C308.606 71.7792 308.57 71.1221 308.607 70.522C327.269 69.4089 345.754 69.3279 364.498 68.6644C365.293 68.6361 363.877 67.6253 365.413 67.5651C371.635 67.3206 377.705 66.9304 383.93 66.9656C386.624 66.9778 389.227 67.0705 391.934 67.2798C392.826 67.3489 392.421 69.2448 395.091 68.8568C395.541 68.7872 399.548 68.3823 400.536 67.9369C400.67 67.8702 399.926 67.0208 401.181 66.9476C408.708 66.5291 416.474 66.4461 423.992 66.739C425.208 66.7881 423.949 67.763 424.81 67.8063C430.92 68.1077 437.51 67.2069 443.423 67.967C447.358 68.4866 445.93 70.1211 448.016 71.6941C448.311 71.9152 450.731 71.9442 450.851 72.8697C451.17 75.1943 450.016 77.7415 450.494 80.2191C450.589 80.752 453.806 80.177 451.902 81.467C451.767 81.5529 449.452 81.983 448.89 82.4241C448.496 82.7283 449.214 83.6654 448.406 84.0564C447.615 84.4474 446.723 83.6648 445.396 84.1348C444.079 84.6123 444.677 85.6706 442.019 85.8416ZM313.45 36.6522C315.702 37.2187 315.517 33.9188 313.349 35.0445C313.244 35.1028 313.334 36.6252 313.45 36.6522ZM56.4627 61.7474C59.3088 63.1246 61.1302 60.9357 59.1413 59.8712C57.1851 58.8059 55.5869 61.3298 56.4627 61.7474ZM27.5521 63.2371C30.8397 64.3727 31.3322 59.7044 27.8254 60.6585C27.6249 60.7122 27.3646 63.171 27.5521 63.2371ZM438.406 72.2892C438.429 72.3319 440.178 72.3374 440.209 72.294C441.111 71.2298 437.643 71.2184 438.406 72.2892ZM5.3747 63.1061C4.79617 63.0448 3.89311 63.5336 3.58847 64.0169C3.42962 64.2552 3.54041 64.4268 3.78481 64.3302C3.89621 64.2947 3.99793 64.2778 4.05131 64.3946C4.10673 64.5097 4.09411 64.7167 4.11466 64.835C4.15688 65.1818 4.90986 64.6452 5.40157 64.1844C5.89922 63.7015 6.11374 63.1745 5.3747 63.1061ZM423.691 20.1295C423.74 20.1687 424.953 19.9193 424.86 19.6564C424.574 18.8081 422.95 19.4604 423.691 20.1295ZM50.5947 44.9902C43.7244 47.2133 38.2998 45.0556 45.8753 42.8378C47.2464 42.4381 43.3852 45.0187 45.2123 44.7429C48.5528 44.2363 49.8336 41.2249 53.4593 41.3295C54.1158 41.3511 50.9897 44.8711 50.5844 44.9995C50.5878 44.9964 50.5913 44.9933 50.5947 44.9902ZM315.263 40.3739C315.312 40.4104 317.014 40.1928 317.047 40.144C317.807 38.9716 314.381 39.4092 315.263 40.3739ZM432.417 10.214C432.29 10.1462 428.373 10.9886 428.298 11.0967C426.68 13.2371 434.532 11.5543 432.417 10.214ZM200.874 57.7827C199.127 59.0278 196.899 59.3884 195.275 58.2318C197.137 58.107 199.009 57.9185 200.874 57.7827Z" fill="#7E0101"/>
</svg>
